<svg width="16" height="16" viewBox="0 0 16 16" fill="none" xmlns="http://www.w3.org/2000/svg">
<path d="M11.2786 7.23529H10.1429V2.70588C10.1429 2.31765 9.82143 2 9.42857 2H6.57143C6.17857 2 5.85714 2.31765 5.85714 2.70588V7.23529H4.72143C4.08571 7.23529 3.76429 7.99765 4.21429 8.44235L7.49286 11.6824C7.77143 11.9576 8.22143 11.9576 8.5 11.6824L11.7786 8.44235C12.2286 7.99765 11.9143 7.23529 11.2786 7.23529ZM2 13.2941C2 13.6824 2.32143 14 2.71429 14H13.2857C13.6786 14 14 13.6824 14 13.2941C14 12.9059 13.6786 12.5882 13.2857 12.5882H2.71429C2.32143 12.5882 2 12.9059 2 13.2941Z" fill="#353535"/>
</svg>
