<svg width="24" height="24" viewBox="0 0 24 24" fill="none" xmlns="http://www.w3.org/2000/svg">
<path fill-rule="evenodd" clip-rule="evenodd" d="M11.2562 14.4539L8.14047 17.5385H10.1538C10.8336 17.5385 11.3846 18.0895 11.3846 18.7692C11.3846 19.449 10.8336 20 10.1538 20H5.23077C4.55103 20 4 19.449 4 18.7692V18.6877V18.6867V13.8462C4 13.1664 4.55103 12.6154 5.23077 12.6154C5.9105 12.6154 6.46154 13.1664 6.46154 13.8462V15.7368L12.57 9.68946C12.6245 9.63554 12.6827 9.58775 12.7438 9.54609L15.8595 6.46154H13.8462C13.1664 6.46154 12.6154 5.9105 12.6154 5.23077C12.6154 4.55103 13.1664 4 13.8462 4H18.7692C19.449 4 20 4.55103 20 5.23077V5.31226V5.3133V10.1538C20 10.8336 19.449 11.3846 18.7692 11.3846C18.0895 11.3846 17.5385 10.8336 17.5385 10.1538V8.26317L11.43 14.3105C11.3755 14.3645 11.3173 14.4122 11.2562 14.4539Z" fill="#C8C8C8"/>
</svg>
