<svg width="33" height="32" viewBox="0 0 33 32" fill="none" xmlns="http://www.w3.org/2000/svg">
<g id="vk" clip-path="url(#clip0_501_18447)">
<g id="Vector">
<path d="M21.412 0H11.588C2.62267 0 0.5 2.12267 0.5 11.088V20.912C0.5 29.8773 2.62267 32 11.588 32H21.412C30.3773 32 32.5 29.8773 32.5 20.912V11.088C32.5 2.12267 30.3547 0 21.412 0ZM26.3347 22.8307H24.0093C23.1293 22.8307 22.8573 22.1307 21.276 20.528C19.8987 19.1947 19.2893 19.0147 18.9507 19.0147C18.476 19.0147 18.34 19.1507 18.34 19.8053V21.9053C18.34 22.4707 18.16 22.8093 16.6693 22.8093C14.208 22.8093 11.4747 21.3187 9.556 18.54C6.66533 14.476 5.87333 11.4267 5.87333 10.7947C5.87333 10.456 6.00933 10.14 6.664 10.14H8.98933C9.576 10.14 9.80267 10.4107 10.0293 11.0427C11.18 14.3627 13.1 17.276 13.8907 17.276C14.184 17.276 14.32 17.14 14.32 16.396V12.9613C14.2293 11.38 13.3933 11.2453 13.3933 10.6813C13.3933 10.4093 13.62 10.1387 13.98 10.1387H17.6387C18.136 10.1387 18.316 10.4093 18.316 10.996V15.6267C18.316 16.1227 18.5427 16.304 18.6773 16.304C18.9707 16.304 19.22 16.1227 19.7613 15.5813C21.4333 13.7067 22.6293 10.816 22.6293 10.816C22.788 10.4773 23.0587 10.1613 23.6467 10.1613H25.972C26.672 10.1613 26.8307 10.5213 26.672 11.0187C26.3787 12.3747 23.5333 16.3933 23.5333 16.3933C23.2853 16.8 23.1947 16.98 23.5333 17.4333C23.7813 17.772 24.5947 18.472 25.1373 19.104C26.1307 20.2333 26.8973 21.1813 27.1013 21.8373C27.328 22.4907 26.988 22.8293 26.3333 22.8293L26.3347 22.8307Z" fill="white"/>
<path d="M21.412 0H11.588C2.62267 0 0.5 2.12267 0.5 11.088V20.912C0.5 29.8773 2.62267 32 11.588 32H21.412C30.3773 32 32.5 29.8773 32.5 20.912V11.088C32.5 2.12267 30.3547 0 21.412 0ZM26.3347 22.8307H24.0093C23.1293 22.8307 22.8573 22.1307 21.276 20.528C19.8987 19.1947 19.2893 19.0147 18.9507 19.0147C18.476 19.0147 18.34 19.1507 18.34 19.8053V21.9053C18.34 22.4707 18.16 22.8093 16.6693 22.8093C14.208 22.8093 11.4747 21.3187 9.556 18.54C6.66533 14.476 5.87333 11.4267 5.87333 10.7947C5.87333 10.456 6.00933 10.14 6.664 10.14H8.98933C9.576 10.14 9.80267 10.4107 10.0293 11.0427C11.18 14.3627 13.1 17.276 13.8907 17.276C14.184 17.276 14.32 17.14 14.32 16.396V12.9613C14.2293 11.38 13.3933 11.2453 13.3933 10.6813C13.3933 10.4093 13.62 10.1387 13.98 10.1387H17.6387C18.136 10.1387 18.316 10.4093 18.316 10.996V15.6267C18.316 16.1227 18.5427 16.304 18.6773 16.304C18.9707 16.304 19.22 16.1227 19.7613 15.5813C21.4333 13.7067 22.6293 10.816 22.6293 10.816C22.788 10.4773 23.0587 10.1613 23.6467 10.1613H25.972C26.672 10.1613 26.8307 10.5213 26.672 11.0187C26.3787 12.3747 23.5333 16.3933 23.5333 16.3933C23.2853 16.8 23.1947 16.98 23.5333 17.4333C23.7813 17.772 24.5947 18.472 25.1373 19.104C26.1307 20.2333 26.8973 21.1813 27.1013 21.8373C27.328 22.4907 26.988 22.8293 26.3333 22.8293L26.3347 22.8307Z" fill="#06BADA" fill-opacity="0.2"/>
</g>
</g>
<defs>
<clipPath id="clip0_501_18447">
<rect width="32" height="32" fill="white" transform="translate(0.5)"/>
</clipPath>
</defs>
</svg>
