<svg width="16" height="16" viewBox="0 0 16 16" fill="none" xmlns="http://www.w3.org/2000/svg">
<g id="icon / 24 / crockery">
<path id="Vector" d="M12 8.10004V2.00004C12 1.82323 11.9298 1.65366 11.8047 1.52864C11.6797 1.40361 11.5101 1.33337 11.3333 1.33337C11.1565 1.33337 10.987 1.40361 10.8619 1.52864C10.7369 1.65366 10.6667 1.82323 10.6667 2.00004V8.10004C10.0893 8.26768 9.58206 8.61841 9.22133 9.09937C8.86061 9.58034 8.66594 10.1655 8.66667 10.7667C8.66667 12.1334 9.68 14.6334 11.3333 14.6334C12.9867 14.6334 14 12.1334 14 10.7667C14.0007 10.1655 13.8061 9.58034 13.4453 9.09937C13.0846 8.61841 12.5774 8.26768 12 8.10004ZM11.3333 13.3334C10.8 13.3334 10 11.82 10 10.8C9.98368 10.4291 10.1147 10.0667 10.3645 9.79197C10.6142 9.51722 10.9625 9.35237 11.3333 9.33337C11.7042 9.35237 12.0524 9.51722 12.3022 9.79197C12.552 10.0667 12.683 10.4291 12.6667 10.8C12.6667 11.82 11.8667 13.3334 11.3333 13.3334ZM6.66667 1.33337C6.48986 1.33337 6.32029 1.40361 6.19526 1.52864C6.07024 1.65366 6 1.82323 6 2.00004V5.64004L5.33333 6.08671V2.00004C5.33333 1.82323 5.2631 1.65366 5.13807 1.52864C5.01305 1.40361 4.84348 1.33337 4.66667 1.33337C4.48986 1.33337 4.32029 1.40361 4.19526 1.52864C4.07024 1.65366 4 1.82323 4 2.00004V6.08671L3.33333 5.64004V2.00004C3.33333 1.82323 3.2631 1.65366 3.13807 1.52864C3.01305 1.40361 2.84348 1.33337 2.66667 1.33337C2.48986 1.33337 2.32029 1.40361 2.19526 1.52864C2.07024 1.65366 2 1.82323 2 2.00004V6.00004C2.00057 6.10985 2.02825 6.21781 2.08059 6.31434C2.13292 6.41087 2.20829 6.49298 2.3 6.55337L4 7.69337V14C4 14.1769 4.07024 14.3464 4.19526 14.4714C4.32029 14.5965 4.48986 14.6667 4.66667 14.6667C4.84348 14.6667 5.01305 14.5965 5.13807 14.4714C5.2631 14.3464 5.33333 14.1769 5.33333 14V7.69337L7.03333 6.55337C7.12504 6.49298 7.20041 6.41087 7.25275 6.31434C7.30508 6.21781 7.33277 6.10985 7.33333 6.00004V2.00004C7.33333 1.82323 7.2631 1.65366 7.13807 1.52864C7.01305 1.40361 6.84348 1.33337 6.66667 1.33337Z" fill="#A4A4A4"/>
</g>
</svg>
