<svg width="16" height="16" viewBox="0 0 16 16" fill="none" xmlns="http://www.w3.org/2000/svg">
<g id="icon / 24 / mirror">
<path id="Union" fill-rule="evenodd" clip-rule="evenodd" d="M3.04471 4.99996C3.37064 2.55372 5.46527 0.666626 8.00065 0.666626C10.536 0.666626 12.6307 2.55372 12.9566 4.99996H14.0007C14.3688 4.99996 14.6673 5.29844 14.6673 5.66663C14.6673 9.12348 12.0362 11.9659 8.66732 12.3004V14H10.0007C10.3688 14 10.6673 14.2984 10.6673 14.6666C10.6673 15.0348 10.3688 15.3333 10.0007 15.3333H6.00065C5.63246 15.3333 5.33398 15.0348 5.33398 14.6666C5.33398 14.2984 5.63246 14 6.00065 14H7.33398V12.3004C3.96514 11.9659 1.33398 9.12348 1.33398 5.66663C1.33398 5.29844 1.63246 4.99996 2.00065 4.99996H3.04471ZM3.04471 6.33329H2.70858C3.03666 8.96414 5.28095 11 8.00065 11C10.7204 11 12.9646 8.96414 13.2927 6.33329H12.9566C12.6307 8.77953 10.536 10.6666 8.00065 10.6666C5.46527 10.6666 3.37064 8.77953 3.04471 6.33329Z" fill="#A4A4A4"/>
</g>
</svg>
