<svg width="16" height="16" viewBox="0 0 16 16" fill="none" xmlns="http://www.w3.org/2000/svg">
<g id="fluent:chat-32-filled">
<g id="Vector">
<path d="M1.00001 8C1.00001 4.134 4.13401 1 8.00001 1C11.866 1 15 4.134 15 8C15 11.866 11.866 15 8.00001 15C6.81601 15 5.69901 14.7055 4.72001 14.1855L1.95601 14.9715C1.82755 15.0079 1.69169 15.0094 1.56248 14.9757C1.43327 14.9421 1.31538 14.8746 1.22099 14.7801C1.1266 14.6857 1.05914 14.5678 1.02556 14.4385C0.991989 14.3093 0.993522 14.1734 1.03001 14.045L1.81601 11.2815C1.27883 10.2712 0.998589 9.14422 1.00001 8ZM5.00001 6.5C5.00001 6.63261 5.05268 6.75979 5.14645 6.85355C5.24022 6.94732 5.3674 7 5.50001 7H10.5C10.6326 7 10.7598 6.94732 10.8536 6.85355C10.9473 6.75979 11 6.63261 11 6.5C11 6.36739 10.9473 6.24021 10.8536 6.14645C10.7598 6.05268 10.6326 6 10.5 6H5.50001C5.3674 6 5.24022 6.05268 5.14645 6.14645C5.05268 6.24021 5.00001 6.36739 5.00001 6.5ZM5.50001 9C5.3674 9 5.24022 9.05268 5.14645 9.14645C5.05268 9.24021 5.00001 9.36739 5.00001 9.5C5.00001 9.63261 5.05268 9.75979 5.14645 9.85355C5.24022 9.94732 5.3674 10 5.50001 10H8.50001C8.63261 10 8.75979 9.94732 8.85356 9.85355C8.94733 9.75979 9.00001 9.63261 9.00001 9.5C9.00001 9.36739 8.94733 9.24021 8.85356 9.14645C8.75979 9.05268 8.63261 9 8.50001 9H5.50001Z" fill="#06BADA"/>
<path d="M1.00001 8C1.00001 4.134 4.13401 1 8.00001 1C11.866 1 15 4.134 15 8C15 11.866 11.866 15 8.00001 15C6.81601 15 5.69901 14.7055 4.72001 14.1855L1.95601 14.9715C1.82755 15.0079 1.69169 15.0094 1.56248 14.9757C1.43327 14.9421 1.31538 14.8746 1.22099 14.7801C1.1266 14.6857 1.05914 14.5678 1.02556 14.4385C0.991989 14.3093 0.993522 14.1734 1.03001 14.045L1.81601 11.2815C1.27883 10.2712 0.998589 9.14422 1.00001 8ZM5.00001 6.5C5.00001 6.63261 5.05268 6.75979 5.14645 6.85355C5.24022 6.94732 5.3674 7 5.50001 7H10.5C10.6326 7 10.7598 6.94732 10.8536 6.85355C10.9473 6.75979 11 6.63261 11 6.5C11 6.36739 10.9473 6.24021 10.8536 6.14645C10.7598 6.05268 10.6326 6 10.5 6H5.50001C5.3674 6 5.24022 6.05268 5.14645 6.14645C5.05268 6.24021 5.00001 6.36739 5.00001 6.5ZM5.50001 9C5.3674 9 5.24022 9.05268 5.14645 9.14645C5.05268 9.24021 5.00001 9.36739 5.00001 9.5C5.00001 9.63261 5.05268 9.75979 5.14645 9.85355C5.24022 9.94732 5.3674 10 5.50001 10H8.50001C8.63261 10 8.75979 9.94732 8.85356 9.85355C8.94733 9.75979 9.00001 9.63261 9.00001 9.5C9.00001 9.36739 8.94733 9.24021 8.85356 9.14645C8.75979 9.05268 8.63261 9 8.50001 9H5.50001Z" fill="black" fill-opacity="0.4"/>
</g>
</g>
</svg>
