<svg width="16" height="16" viewBox="0 0 16 16" fill="none" xmlns="http://www.w3.org/2000/svg">
<mask id="mask0_758_12432" style="mask-type:luminance" maskUnits="userSpaceOnUse" x="0" y="1" width="16" height="14">
<path d="M1.33203 4.66675H14.6654V8.66675H1.33203V4.66675ZM1.33203 8.66675H14.6654V12.6667H1.33203V8.66675Z" fill="white"/>
<path fill-rule="evenodd" clip-rule="evenodd" d="M0.666016 4.66667C0.666016 4.29848 0.964492 4 1.33268 4H14.666C15.0342 4 15.3327 4.29848 15.3327 4.66667V12.6667C15.3327 13.0349 15.0342 13.3333 14.666 13.3333H1.33268C0.964492 13.3333 0.666016 13.0349 0.666016 12.6667V4.66667ZM1.99935 5.33333V8H13.9993V5.33333H1.99935ZM13.9993 9.33333H1.99935V12H13.9993V9.33333Z" fill="white"/>
<path fill-rule="evenodd" clip-rule="evenodd" d="M6.66602 6.66667C6.66602 6.29848 6.96449 6 7.33268 6H8.66602C9.03421 6 9.33268 6.29848 9.33268 6.66667C9.33268 7.03486 9.03421 7.33333 8.66602 7.33333H7.33268C6.96449 7.33333 6.66602 7.03486 6.66602 6.66667ZM6.66602 10.6667C6.66602 10.2985 6.96449 10 7.33268 10H8.66602C9.03421 10 9.33268 10.2985 9.33268 10.6667C9.33268 11.0349 9.03421 11.3333 8.66602 11.3333H7.33268C6.96449 11.3333 6.66602 11.0349 6.66602 10.6667Z" fill="black"/>
<path fill-rule="evenodd" clip-rule="evenodd" d="M4.66667 2.00004C4.66667 1.63185 4.96514 1.33337 5.33333 1.33337H10.6667C11.0349 1.33337 11.3333 1.63185 11.3333 2.00004C11.3333 2.36823 11.0349 2.66671 10.6667 2.66671H8.66667V4.66671C8.66667 5.0349 8.36819 5.33337 8 5.33337C7.63181 5.33337 7.33333 5.0349 7.33333 4.66671V2.66671H5.33333C4.96514 2.66671 4.66667 2.36823 4.66667 2.00004ZM2.66667 12C3.03486 12 3.33333 12.2985 3.33333 12.6667V14C3.33333 14.3682 3.03486 14.6667 2.66667 14.6667C2.29848 14.6667 2 14.3682 2 14V12.6667C2 12.2985 2.29848 12 2.66667 12ZM13.3333 12C13.7015 12 14 12.2985 14 12.6667V14C14 14.3682 13.7015 14.6667 13.3333 14.6667C12.9651 14.6667 12.6667 14.3682 12.6667 14V12.6667C12.6667 12.2985 12.9651 12 13.3333 12Z" fill="white"/>
</mask>
<g mask="url(#mask0_758_12432)">
<path d="M0 0H16V16H0V0Z" fill="#A4A4A4"/>
</g>
</svg>
