<svg width="16" height="16" viewBox="0 0 16 16" fill="none" xmlns="http://www.w3.org/2000/svg">
<g id="icon / 16 / mail">
<g id="vector">
<path d="M1 6.74667V10.5C1 11.163 1.27656 11.7989 1.76884 12.2678C2.26113 12.7366 2.92881 13 3.625 13H12.375C13.0712 13 13.7389 12.7366 14.2312 12.2678C14.7234 11.7989 15 11.163 15 10.5V6.74667L8.35875 9.59333C8.24595 9.64163 8.12368 9.66659 8 9.66659C7.87632 9.66659 7.75405 9.64163 7.64125 9.59333L1 6.74667ZM1.06475 4.94667L8 7.92L14.9353 4.94667C14.8035 4.39379 14.4783 3.89998 14.0131 3.54627C13.5479 3.19255 12.9703 2.99992 12.375 3H3.625C3.02972 2.99992 2.45208 3.19255 1.98687 3.54627C1.52166 3.89998 1.19651 4.39379 1.06475 4.94667Z" fill="#06BADA"/>
<path d="M1 6.74667V10.5C1 11.163 1.27656 11.7989 1.76884 12.2678C2.26113 12.7366 2.92881 13 3.625 13H12.375C13.0712 13 13.7389 12.7366 14.2312 12.2678C14.7234 11.7989 15 11.163 15 10.5V6.74667L8.35875 9.59333C8.24595 9.64163 8.12368 9.66659 8 9.66659C7.87632 9.66659 7.75405 9.64163 7.64125 9.59333L1 6.74667ZM1.06475 4.94667L8 7.92L14.9353 4.94667C14.8035 4.39379 14.4783 3.89998 14.0131 3.54627C13.5479 3.19255 12.9703 2.99992 12.375 3H3.625C3.02972 2.99992 2.45208 3.19255 1.98687 3.54627C1.52166 3.89998 1.19651 4.39379 1.06475 4.94667Z" fill="black" fill-opacity="0.4"/>
</g>
</g>
</svg>
