<svg width="16" height="16" viewBox="0 0 16 16" fill="none" xmlns="http://www.w3.org/2000/svg">
<g id="icon / 24 / water cooler">
<path id="Vector" d="M4.66732 14.6667C4.30065 14.6667 3.98687 14.5363 3.72598 14.2754C3.46465 14.014 3.33398 13.7 3.33398 13.3334V12C3.33398 11.6334 3.46465 11.3194 3.72598 11.058C3.98687 10.7972 4.30065 10.6667 4.66732 10.6667V7.33337C4.30065 7.33337 3.98687 7.20271 3.72598 6.94137C3.46465 6.68049 3.33398 6.36671 3.33398 6.00004V4.66671C3.33398 4.30004 3.46465 3.98626 3.72598 3.72537C3.98687 3.46404 4.30065 3.33337 4.66732 3.33337H6.66732V2.66671C6.47843 2.66671 6.32021 2.60271 6.19265 2.47471C6.06465 2.34715 6.00065 2.18893 6.00065 2.00004C6.00065 1.81115 6.06465 1.65271 6.19265 1.52471C6.32021 1.39715 6.47843 1.33337 6.66732 1.33337H9.33398C9.52287 1.33337 9.68132 1.39715 9.80932 1.52471C9.93687 1.65271 10.0007 1.81115 10.0007 2.00004C10.0007 2.18893 9.93687 2.34715 9.80932 2.47471C9.68132 2.60271 9.52287 2.66671 9.33398 2.66671V3.33337H11.334C11.7007 3.33337 12.0147 3.46404 12.276 3.72537C12.5369 3.98626 12.6673 4.30004 12.6673 4.66671V6.00004C12.6673 6.36671 12.5369 6.68049 12.276 6.94137C12.0147 7.20271 11.7007 7.33337 11.334 7.33337V10.6667C11.7007 10.6667 12.0147 10.7972 12.276 11.058C12.5369 11.3194 12.6673 11.6334 12.6673 12V13.3334C12.6673 13.7 12.5369 14.014 12.276 14.2754C12.0147 14.5363 11.7007 14.6667 11.334 14.6667H4.66732Z" fill="#A4A4A4"/>
</g>
</svg>
