<svg width="24" height="24" viewBox="0 0 24 24" fill="none" xmlns="http://www.w3.org/2000/svg">
<path fill-rule="evenodd" clip-rule="evenodd" d="M6.8 16.6C6.57909 16.6 6.4 16.4209 6.4 16.2L6.4 9.8C6.4 9.57909 6.57909 9.4 6.8 9.4L17.2 9.4C17.4209 9.4 17.6 9.57909 17.6 9.8V16.6V19H19.2C19.6418 19 20 18.6418 20 18.2L20 7.8C20 7.35817 19.6418 7 19.2 7H15.2L15.2 3.8C15.2 3.35817 14.8418 3 14.4 3H12.8L6.4 3H5.152H4.8C4.35817 3 4 3.35817 4 3.8V7V7.8L4 18.2C4 18.6418 4.35817 19 4.8 19L15.2 19V16.6V12.6004C15.2 12.1587 14.842 11.8006 14.4002 11.8004L13.6002 11.8002C13.1583 11.8001 12.8 12.1583 12.8 12.6002V16.6L6.8 16.6ZM12.8 5.4V7H6.4V5.4H12.8Z" fill="#C8C8C8"/>
</svg>
