<svg width="16" height="16" viewBox="0 0 16 16" fill="none" xmlns="http://www.w3.org/2000/svg">
<g id="icon / 24 / bed">
<path id="Vector" d="M12.5185 6.47615V4.19044C12.5185 3.7863 12.3624 3.39871 12.0846 3.11294C11.8068 2.82717 11.43 2.66663 11.037 2.66663H4.96296C4.57005 2.66663 4.19323 2.82717 3.9154 3.11294C3.63757 3.39871 3.48148 3.7863 3.48148 4.19044V6.47615C3.08857 6.47615 2.71175 6.63669 2.43392 6.92246C2.15608 7.20823 2 7.59582 2 7.99996V11.8095H2.98519L3.48148 13.3333H4.22222L4.71852 11.8095H11.2815L11.7778 13.3333H12.5185L13.0148 11.8095H14V7.99996C14 7.59582 13.8439 7.20823 13.5661 6.92246C13.2883 6.63669 12.9114 6.47615 12.5185 6.47615ZM11.037 6.47615H4.96296V4.19044H11.037V6.47615Z" fill="#A4A4A4"/>
</g>
</svg>
