<svg width="16" height="16" viewBox="0 0 16 16" fill="none" xmlns="http://www.w3.org/2000/svg">
<g id="icon / 24 / hanger" clip-path="url(#clip0_748_12450)">
<path id="Union" fill-rule="evenodd" clip-rule="evenodd" d="M6.58514 1.25241C6.96021 0.87734 7.46892 0.666626 7.99935 0.666626C8.52978 0.666626 9.03849 0.87734 9.41356 1.25241C9.78863 1.62748 9.99935 2.13619 9.99935 2.66663C9.99935 2.99208 9.86781 3.3793 9.74422 3.69153C9.60851 4.03435 9.43166 4.40676 9.26071 4.74418C9.14362 4.97528 9.02687 5.19472 8.92392 5.38347L14.3949 8.11896C14.7368 8.28986 15.0111 8.57124 15.1731 8.91742C15.3351 9.26364 15.3755 9.65443 15.2877 10.0265C15.1998 10.3985 14.9889 10.73 14.6892 10.9671C14.3894 11.2043 14.0184 11.3333 13.6362 11.3333H12.9993V14.6666C12.9993 15.0348 12.7009 15.3333 12.3327 15.3333H3.66602C3.29783 15.3333 2.99935 15.0348 2.99935 14.6666V11.3333H2.36299C1.98077 11.3333 1.60962 11.2043 1.30989 10.9671C1.01012 10.73 0.799236 10.3985 0.711408 10.0265C0.62358 9.65443 0.663955 9.26364 0.82599 8.91742C0.988011 8.57124 1.26217 8.28991 1.60406 8.11901L7.522 5.16003C7.55138 5.10852 7.58641 5.04661 7.62571 4.97627C7.74786 4.75767 7.90996 4.46007 8.07132 4.14157C8.2337 3.82108 8.39018 3.48952 8.50448 3.20079C8.56164 3.0564 8.60469 2.93158 8.63265 2.83003C8.64651 2.7797 8.65539 2.73965 8.6606 2.70922C8.6653 2.68177 8.66592 2.66841 8.666 2.66665C8.666 2.48984 8.59578 2.32025 8.47075 2.19522C8.34573 2.0702 8.17616 1.99996 7.99935 1.99996C7.82254 1.99996 7.65297 2.0702 7.52794 2.19522C7.40292 2.32025 7.33268 2.48982 7.33268 2.66663C7.33268 3.03482 7.0342 3.33329 6.66602 3.33329C6.29783 3.33329 5.99935 3.03482 5.99935 2.66663C5.99935 2.13619 6.21006 1.62748 6.58514 1.25241ZM12.9993 9.99996H13.6362C13.7181 9.99997 13.7976 9.97234 13.8618 9.92155C13.926 9.87076 13.9712 9.79978 13.99 9.72011C14.0088 9.64044 14.0002 9.55675 13.9655 9.48261C13.9308 9.40847 13.872 9.34822 13.7988 9.31162L7.99953 6.41198L2.20034 9.31158C2.12712 9.34817 2.06831 9.40847 2.03361 9.48261C1.99891 9.55675 1.99026 9.64044 2.00907 9.72011C2.02788 9.79977 2.07304 9.87076 2.13723 9.92155C2.20143 9.97234 2.28089 9.99997 2.36275 9.99996H2.99935C2.99935 9.63177 3.29783 9.33329 3.66602 9.33329H12.3327C12.7009 9.33329 12.9993 9.63177 12.9993 9.99996Z" fill="#A4A4A4"/>
</g>
<defs>
<clipPath id="clip0_748_12450">
<rect width="16" height="16" fill="white"/>
</clipPath>
</defs>
</svg>
