<svg width="16" height="16" viewBox="0 0 16 16" fill="none" xmlns="http://www.w3.org/2000/svg">
<g id="icon / 24 / fridge">
<path id="Vector" d="M4.66732 1.33337H11.334C11.6876 1.33337 12.0267 1.47385 12.2768 1.7239C12.5268 1.97395 12.6673 2.31309 12.6673 2.66671V6.00004H3.33398V2.66671C3.33398 2.31309 3.47446 1.97395 3.72451 1.7239C3.97456 1.47385 4.3137 1.33337 4.66732 1.33337ZM12.6673 12.6667C12.6673 13.0203 12.5268 13.3595 12.2768 13.6095C12.0267 13.8596 11.6876 14 11.334 14V14.6667H10.0007V14H6.00065V14.6667H4.66732V14C4.3137 14 3.97456 13.8596 3.72451 13.6095C3.47446 13.3595 3.33398 13.0203 3.33398 12.6667V6.66671H12.6673V12.6667ZM5.33398 3.33337V4.66671H6.66732V3.33337H5.33398ZM5.33398 8.00004V10H6.66732V8.00004H5.33398Z" fill="#A4A4A4"/>
</g>
</svg>
