<svg width="16" height="16" viewBox="0 0 16 16" fill="none" xmlns="http://www.w3.org/2000/svg">
<g id="icon / 24 / teapot">
<path id="Vector" d="M5.00065 12.6667C4.44837 12.6667 4.00065 12.219 4.00065 11.6667V4.00004L3.20065 2.93337C2.70622 2.27414 3.17661 1.33337 4.00065 1.33337H12.0007V3.33337H13.334C13.7007 3.33337 14.0147 3.46404 14.276 3.72537C14.5369 3.98626 14.6673 4.30004 14.6673 4.66671V8.00004C14.6673 8.36671 14.5369 8.68049 14.276 8.94137C14.0147 9.20271 13.7007 9.33337 13.334 9.33337H12.0007V11.6667C12.0007 12.219 11.5529 12.6667 11.0007 12.6667H5.00065ZM12.0007 8.00004H13.334V4.66671H12.0007V8.00004ZM8.00065 10.6667H10.0007V3.33337H8.00065V10.6667ZM2.00065 14.6667C1.63246 14.6667 1.33398 14.3682 1.33398 14C1.33398 13.6319 1.63246 13.3334 2.00065 13.3334H14.0007C14.3688 13.3334 14.6673 13.6319 14.6673 14C14.6673 14.3682 14.3688 14.6667 14.0007 14.6667H2.00065Z" fill="#A4A4A4"/>
</g>
</svg>
