<svg width="16" height="16" viewBox="0 0 16 16" fill="none" xmlns="http://www.w3.org/2000/svg">
<path d="M10.4 8.3911V3.06804H8.48003C7.81379 2.39062 6.91926 2.00769 5.98532 2.00011C5.05139 1.99254 4.15116 2.36092 3.47475 3.02746C2.79834 3.694 2.39869 4.60653 2.3602 5.57234C2.32171 6.53815 2.64739 7.48164 3.26846 8.20357L2.11347 11.4861C2.03045 11.7165 1.99232 11.9616 2.00128 12.2073C2.01024 12.453 2.0661 12.6944 2.16566 12.9177C2.26521 13.141 2.40648 13.3416 2.58133 13.5081C2.75617 13.6746 2.96112 13.8036 3.18437 13.8877C3.40762 13.9718 3.64475 14.0093 3.88208 13.9981C4.11941 13.9868 4.35224 13.9271 4.56716 13.8223C4.78208 13.7175 4.97482 13.5697 5.13428 13.3875C5.29374 13.2052 5.41676 12.9921 5.49625 12.7603L6.68544 9.37971C7.36292 9.23578 7.98586 8.89251 8.47943 8.3911H10.4ZM11 8.3911H12.8C13.1183 8.3911 13.4235 8.26025 13.6485 8.02734C13.8736 7.79443 14 7.47853 14 7.14914V4.31001C14 3.98062 13.8736 3.66472 13.6485 3.43181C13.4235 3.19889 13.1183 3.06804 12.8 3.06804H11V8.3911ZM6.80004 5.10859C6.95917 5.10859 7.11178 5.17402 7.2243 5.29047C7.33682 5.40693 7.40004 5.56488 7.40004 5.72957C7.40004 5.89427 7.33682 6.05222 7.2243 6.16867C7.11178 6.28513 6.95917 6.35056 6.80004 6.35056H5.00005C4.84092 6.35056 4.68831 6.28513 4.57579 6.16867C4.46327 6.05222 4.40005 5.89427 4.40005 5.72957C4.40005 5.56488 4.46327 5.40693 4.57579 5.29047C4.68831 5.17402 4.84092 5.10859 5.00005 5.10859H6.80004Z" fill="#A4A4A4"/>
</svg>
