<svg width="14" height="14" viewBox="0 0 14 14" fill="none" xmlns="http://www.w3.org/2000/svg">
<path fill-rule="evenodd" clip-rule="evenodd" d="M7.00013 11.6667C7.17694 11.6667 7.34651 11.7369 7.47154 11.862C7.59656 11.987 7.6668 12.1566 7.6668 12.3334V13C7.6668 13.1769 7.59656 13.3464 7.47154 13.4714C7.34651 13.5965 7.17694 13.6667 7.00013 13.6667C6.82332 13.6667 6.65375 13.5965 6.52873 13.4714C6.40371 13.3464 6.33347 13.1769 6.33347 13V12.3334C6.33347 12.1566 6.40371 11.987 6.52873 11.862C6.65375 11.7369 6.82332 11.6667 7.00013 11.6667ZM10.3001 10.3C10.4149 10.1853 10.5677 10.1163 10.7297 10.1061C10.8917 10.0959 11.0519 10.1452 11.1801 10.2447L11.2428 10.3L11.7141 10.7714C11.8337 10.8913 11.9031 11.0523 11.9083 11.2216C11.9135 11.3909 11.854 11.5559 11.742 11.6829C11.6299 11.8099 11.4738 11.8896 11.3052 11.9056C11.1365 11.9217 10.9681 11.873 10.8341 11.7694L10.7715 11.714L10.3001 11.2427C10.1752 11.1177 10.1049 10.9482 10.1049 10.7714C10.1049 10.5946 10.1752 10.4251 10.3001 10.3ZM3.70013 10.3C3.82512 10.4251 3.89533 10.5946 3.89533 10.7714C3.89533 10.9482 3.82512 11.1177 3.70013 11.2427L3.2288 11.714C3.10307 11.8355 2.93466 11.9027 2.75987 11.9012C2.58507 11.8996 2.41786 11.8295 2.29426 11.7059C2.17065 11.5823 2.10054 11.4151 2.09902 11.2403C2.0975 11.0655 2.1647 10.8971 2.28613 10.7714L2.75747 10.3C2.88249 10.1751 3.05202 10.1048 3.2288 10.1048C3.40558 10.1048 3.57512 10.1751 3.70013 10.3ZM7.00013 0.333374C7.16342 0.333396 7.32103 0.393345 7.44305 0.501851C7.56507 0.610357 7.64303 0.759873 7.66213 0.922041L7.6668 1.00004V1.73337L13.1168 7.18404C13.5228 7.58937 13.2655 8.27071 12.7168 8.32937L12.6408 8.33337H10.2668C10.1151 9.07372 9.71635 9.74056 9.13599 10.2246C8.55564 10.7087 7.82807 10.9813 7.07252 10.9977C6.31696 11.0141 5.57824 10.7734 4.9774 10.315C4.37655 9.85664 3.94924 9.20776 3.76547 8.47471L3.73347 8.33337H1.36013C0.786134 8.33337 0.486801 7.67004 0.832801 7.24071L0.884134 7.18404L6.33347 1.73337V1.00004C6.33347 0.82323 6.40371 0.65366 6.52873 0.528636C6.65375 0.403612 6.82332 0.333374 7.00013 0.333374ZM8.8868 8.33337H5.11347C5.24787 8.71356 5.49402 9.04427 5.81965 9.28212C6.14527 9.51998 6.53518 9.65388 6.93823 9.66628C7.34129 9.67868 7.73869 9.56899 8.07831 9.3516C8.41794 9.1342 8.68395 8.81925 8.84147 8.44804L8.8868 8.33337Z" fill="#A4A4A4"/>
</svg>
