<svg width="16" height="16" viewBox="0 0 16 16" fill="none" xmlns="http://www.w3.org/2000/svg">
<g id="icon / 24 / carpet">
<path id="Vector" d="M7.99935 9.33337C7.26602 9.33337 6.66602 8.74004 6.66602 8.00004C6.66602 7.26004 7.26602 6.66671 7.99935 6.66671C8.73268 6.66671 9.33268 7.26671 9.33268 8.00004C9.33268 8.73337 8.73935 9.33337 7.99935 9.33337ZM15.3327 12.6667H0.666016V11.3334V10V8.66671V7.33337V6.00004V4.66671V3.33337H15.3327V4.66671V6.00004V7.33337V8.66671V10V11.3334V12.6667ZM7.99935 10.6134C8.41268 11.08 9.10602 11.2067 9.66601 10.8867C10.226 10.5667 10.4593 9.89337 10.266 9.30671C10.8727 9.18671 11.3327 8.64671 11.3327 8.00004C11.3327 7.35337 10.8727 6.81337 10.266 6.69337C10.4593 6.10671 10.226 5.43337 9.66601 5.11337C9.10602 4.79337 8.41268 4.92004 7.99935 5.38671C7.79659 5.15428 7.51934 4.99955 7.21508 4.949C6.9108 4.89845 6.59843 4.95523 6.3314 5.10962C6.06438 5.264 5.85932 5.50639 5.75132 5.7953C5.64331 6.08422 5.63908 6.40169 5.73935 6.69337C5.12602 6.81337 4.66602 7.35337 4.66602 8.00004C4.66602 8.64671 5.12602 9.18671 5.73935 9.30671C5.63908 9.5984 5.64331 9.91586 5.75132 10.2048C5.85932 10.4937 6.06438 10.7361 6.3314 10.8905C6.59843 11.0449 6.9108 11.1016 7.21508 11.0511C7.51934 11.0005 7.79659 10.8458 7.99935 10.6134Z" fill="#A4A4A4"/>
</g>
</svg>
