<svg width="16" height="16" viewBox="0 0 16 16" fill="none" xmlns="http://www.w3.org/2000/svg">
<g id="icon / 24 / chair">
<path id="Vector" d="M3.33398 6.10004V4.66671C3.33398 3.93337 3.93398 3.33337 4.66732 3.33337H11.334C12.0673 3.33337 12.6673 3.93337 12.6673 4.66671V6.10671C11.894 6.38004 11.334 7.11337 11.334 7.98004V9.33337H4.66732V7.97337C4.66732 7.11337 4.10732 6.37337 3.33398 6.10004ZM13.334 6.66671C12.6007 6.66671 12.0007 7.26671 12.0007 8.00004V10H4.00065V8.00004C4.00065 7.64642 3.86018 7.30728 3.61013 7.05723C3.36008 6.80718 3.02094 6.66671 2.66732 6.66671C2.3137 6.66671 1.97456 6.80718 1.72451 7.05723C1.47446 7.30728 1.33398 7.64642 1.33398 8.00004V11.3334C1.33398 12.0667 1.93398 12.6667 2.66732 12.6667V14H4.00065V12.6667H12.0007V14H13.334V12.6667C14.0673 12.6667 14.6673 12.0667 14.6673 11.3334V8.00004C14.6673 7.26671 14.0673 6.66671 13.334 6.66671Z" fill="#A4A4A4"/>
</g>
</svg>
