<svg width="16" height="16" viewBox="0 0 16 16" fill="none" xmlns="http://www.w3.org/2000/svg">
<g id="icon / 24 / wifi">
<path id="Vector" d="M8.94175 12.9414C9.06579 12.8178 9.16423 12.671 9.23139 12.5094C9.29855 12.3477 9.33313 12.1744 9.33313 11.9994C9.33313 11.8243 9.29855 11.651 9.23139 11.4893C9.16423 11.3277 9.06579 11.1809 8.94175 11.0574C8.8183 10.933 8.67149 10.8343 8.50976 10.7669C8.34803 10.6995 8.17457 10.6648 7.99936 10.6646C7.82415 10.6645 7.65064 10.699 7.48882 10.7662C7.32699 10.8334 7.18004 10.9319 7.05642 11.056C6.92907 11.179 6.82749 11.3261 6.75761 11.4888C6.68774 11.6515 6.65095 11.8264 6.64942 12.0035C6.64788 12.1805 6.68161 12.3561 6.74865 12.52C6.81569 12.6838 6.9147 12.8327 7.03989 12.9579C7.16508 13.0831 7.31395 13.1821 7.47781 13.2491C7.64167 13.3162 7.81725 13.3499 7.99428 13.3484C8.17132 13.3468 8.34628 13.31 8.50896 13.2402C8.67163 13.1703 8.81875 13.0687 8.94175 12.9414ZM13.6557 7.67669C13.4806 7.67701 13.3071 7.64266 13.1454 7.57561C12.9836 7.50856 12.8366 7.41014 12.7131 7.28602C10.1137 4.68669 5.88442 4.68735 3.28442 7.28602C3.03432 7.53612 2.69511 7.67662 2.34142 7.67662C1.98772 7.67662 1.64852 7.53612 1.39842 7.28602C1.14832 7.03592 1.00781 6.69671 1.00781 6.34302C1.00781 5.98933 1.14832 5.65012 1.39842 5.40002C5.03775 1.76135 10.9591 1.76135 14.5978 5.40002C14.7844 5.58641 14.9115 5.82396 14.9631 6.08262C15.0146 6.34127 14.9883 6.60941 14.8875 6.85312C14.7867 7.09683 14.6158 7.30516 14.3966 7.45176C14.1773 7.59835 13.9195 7.67663 13.6557 7.67669ZM5.17042 10.5047C4.90675 10.5046 4.64902 10.4264 4.4298 10.2799C4.21059 10.1334 4.03974 9.92516 3.93885 9.68156C3.83795 9.43796 3.81155 9.16991 3.86297 8.91131C3.91439 8.65271 4.04134 8.41516 4.22775 8.22869C6.30642 6.14935 9.69042 6.14935 11.7698 8.22869C12.0198 8.47879 12.1604 8.81799 12.1604 9.17169C12.1604 9.52538 12.0198 9.86459 11.7698 10.1147C11.5197 10.3648 11.1804 10.5053 10.8267 10.5053C10.4731 10.5053 10.1338 10.3648 9.88375 10.1147C9.38322 9.61538 8.70508 9.33497 7.99808 9.33497C7.29109 9.33497 6.61295 9.61538 6.11242 10.1147C5.98888 10.2386 5.84204 10.3369 5.68038 10.4038C5.51871 10.4707 5.34539 10.505 5.17042 10.5047Z" fill="#A4A4A4"/>
</g>
</svg>
