<svg width="16" height="16" viewBox="0 0 16 16" fill="none" xmlns="http://www.w3.org/2000/svg">
<g id="icon / 24 / coffee table">
<path id="Vector" d="M6.13398 10.6667L5.48398 12.2834C5.42843 12.4056 5.35065 12.5 5.25065 12.5667C5.15065 12.6334 5.03954 12.6667 4.91732 12.6667C4.6951 12.6667 4.52021 12.5749 4.39265 12.3914C4.26465 12.2083 4.2451 12.0167 4.33398 11.8167L5.00065 10.1667C5.10065 9.91115 5.26176 9.70826 5.48398 9.55804C5.70621 9.40826 5.95621 9.33337 6.23398 9.33337H7.33398V7.98337C5.63398 7.92782 4.2091 7.67782 3.05932 7.23337C1.9091 6.78893 1.33398 6.26671 1.33398 5.66671C1.33398 5.02226 1.98398 4.47226 3.28398 4.01671C4.58398 3.56115 6.15621 3.33337 8.00065 3.33337C9.85621 3.33337 11.4311 3.56115 12.7253 4.01671C14.02 4.47226 14.6673 5.02226 14.6673 5.66671C14.6673 6.26671 14.0924 6.78893 12.9427 7.23337C11.7924 7.67782 10.3673 7.92782 8.66732 7.98337V9.33337H9.76732C10.034 9.33337 10.2813 9.40826 10.5093 9.55804C10.7369 9.70826 10.9007 9.91115 11.0007 10.1667L11.6673 11.8167C11.7118 11.9167 11.7255 12.0167 11.7087 12.1167C11.6922 12.2167 11.6562 12.3083 11.6007 12.3914C11.5451 12.4749 11.4729 12.5416 11.384 12.5914C11.2951 12.6416 11.1951 12.6667 11.084 12.6667C10.9618 12.6667 10.8507 12.6334 10.7507 12.5667C10.6507 12.5 10.5729 12.4056 10.5173 12.2834L9.86732 10.6667H6.13398Z" fill="#A4A4A4"/>
</g>
</svg>
