<svg width="16" height="16" viewBox="0 0 16 16" fill="none" xmlns="http://www.w3.org/2000/svg">
<path d="M6.66642 1.33301C5.83213 1.33345 5.00958 1.52962 4.26489 1.90573C3.52019 2.28185 2.87411 2.82743 2.37859 3.49861C1.88306 4.1698 1.55191 4.94788 1.41175 5.77031C1.27158 6.59274 1.32631 7.43658 1.57154 8.23401C1.81677 9.03145 2.24566 9.76023 2.82373 10.3618C3.40181 10.9633 4.11295 11.4209 4.89999 11.6977C5.68703 11.9744 6.52803 12.0627 7.35539 11.9554C8.18274 11.848 8.97338 11.5481 9.66375 11.0797L12.9598 14.373C13.0513 14.4713 13.1617 14.5501 13.2844 14.6047C13.407 14.6594 13.5395 14.6888 13.6737 14.6911C13.808 14.6935 13.9414 14.6688 14.0659 14.6185C14.1904 14.5682 14.3035 14.4934 14.3985 14.3984C14.4934 14.3034 14.5683 14.1903 14.6186 14.0658C14.6689 13.9413 14.6936 13.8079 14.6912 13.6736C14.6888 13.5394 14.6595 13.407 14.6048 13.2843C14.5501 13.1616 14.4713 13.0512 14.3731 12.9597L11.0798 9.66368C11.6246 8.86178 11.9406 7.92655 11.9937 6.95852C12.0468 5.9905 11.835 5.02631 11.3812 4.16962C10.9273 3.31294 10.2486 2.59616 9.41786 2.09636C8.58714 1.59657 7.6359 1.33266 6.66642 1.33301ZM3.33309 6.66634C3.33309 5.78229 3.68428 4.93444 4.3094 4.30932C4.93452 3.6842 5.78237 3.33301 6.66642 3.33301C7.55048 3.33301 8.39832 3.6842 9.02344 4.30932C9.64856 4.93444 9.99975 5.78229 9.99975 6.66634C9.99975 7.5504 9.64856 8.39824 9.02344 9.02336C8.39832 9.64849 7.55048 9.99968 6.66642 9.99968C5.78237 9.99968 4.93452 9.64849 4.3094 9.02336C3.68428 8.39824 3.33309 7.5504 3.33309 6.66634Z" fill="#06BADA"/>
<path d="M6.66642 1.33301C5.83213 1.33345 5.00958 1.52962 4.26489 1.90573C3.52019 2.28185 2.87411 2.82743 2.37859 3.49861C1.88306 4.1698 1.55191 4.94788 1.41175 5.77031C1.27158 6.59274 1.32631 7.43658 1.57154 8.23401C1.81677 9.03145 2.24566 9.76023 2.82373 10.3618C3.40181 10.9633 4.11295 11.4209 4.89999 11.6977C5.68703 11.9744 6.52803 12.0627 7.35539 11.9554C8.18274 11.848 8.97338 11.5481 9.66375 11.0797L12.9598 14.373C13.0513 14.4713 13.1617 14.5501 13.2844 14.6047C13.407 14.6594 13.5395 14.6888 13.6737 14.6911C13.808 14.6935 13.9414 14.6688 14.0659 14.6185C14.1904 14.5682 14.3035 14.4934 14.3985 14.3984C14.4934 14.3034 14.5683 14.1903 14.6186 14.0658C14.6689 13.9413 14.6936 13.8079 14.6912 13.6736C14.6888 13.5394 14.6595 13.407 14.6048 13.2843C14.5501 13.1616 14.4713 13.0512 14.3731 12.9597L11.0798 9.66368C11.6246 8.86178 11.9406 7.92655 11.9937 6.95852C12.0468 5.9905 11.835 5.02631 11.3812 4.16962C10.9273 3.31294 10.2486 2.59616 9.41786 2.09636C8.58714 1.59657 7.6359 1.33266 6.66642 1.33301ZM3.33309 6.66634C3.33309 5.78229 3.68428 4.93444 4.3094 4.30932C4.93452 3.6842 5.78237 3.33301 6.66642 3.33301C7.55048 3.33301 8.39832 3.6842 9.02344 4.30932C9.64856 4.93444 9.99975 5.78229 9.99975 6.66634C9.99975 7.5504 9.64856 8.39824 9.02344 9.02336C8.39832 9.64849 7.55048 9.99968 6.66642 9.99968C5.78237 9.99968 4.93452 9.64849 4.3094 9.02336C3.68428 8.39824 3.33309 7.5504 3.33309 6.66634Z" fill="black" fill-opacity="0.4"/>
</svg>
