<svg width="16" height="16" viewBox="0 0 16 16" fill="none" xmlns="http://www.w3.org/2000/svg">
<g id="icon / 24 / oven">
<path id="Vector" d="M2.66732 13.3333C2.30065 13.3333 1.98687 13.2028 1.72598 12.942C1.46465 12.6806 1.33398 12.3666 1.33398 12V3.99996C1.33398 3.63329 1.46465 3.31951 1.72598 3.05863C1.98687 2.79729 2.30065 2.66663 2.66732 2.66663H13.334C13.7007 2.66663 14.0147 2.79729 14.276 3.05863C14.5369 3.31951 14.6673 3.63329 14.6673 3.99996V12C14.6673 12.3666 14.5369 12.6806 14.276 12.942C14.0147 13.2028 13.7007 13.3333 13.334 13.3333H2.66732ZM3.33398 11.3333H10.0007V4.66663H3.33398V11.3333ZM12.0007 11.3333C12.1895 11.3333 12.3478 11.2693 12.4753 11.1413C12.6033 11.0137 12.6673 10.8555 12.6673 10.6666C12.6673 10.4777 12.6033 10.3193 12.4753 10.1913C12.3478 10.0637 12.1895 9.99996 12.0007 9.99996C11.8118 9.99996 11.6535 10.0637 11.526 10.1913C11.398 10.3193 11.334 10.4777 11.334 10.6666C11.334 10.8555 11.398 11.0137 11.526 11.1413C11.6535 11.2693 11.8118 11.3333 12.0007 11.3333ZM4.66732 9.99996V5.99996H8.66732V9.99996H4.66732ZM12.0007 8.66663C12.1895 8.66663 12.3478 8.60263 12.4753 8.47463C12.6033 8.34707 12.6673 8.18885 12.6673 7.99996C12.6673 7.81107 12.6033 7.65263 12.4753 7.52463C12.3478 7.39707 12.1895 7.33329 12.0007 7.33329C11.8118 7.33329 11.6535 7.39707 11.526 7.52463C11.398 7.65263 11.334 7.81107 11.334 7.99996C11.334 8.18885 11.398 8.34707 11.526 8.47463C11.6535 8.60263 11.8118 8.66663 12.0007 8.66663ZM12.0007 5.99996C12.1895 5.99996 12.3478 5.93596 12.4753 5.80796C12.6033 5.6804 12.6673 5.52218 12.6673 5.33329C12.6673 5.1444 12.6033 4.98596 12.4753 4.85796C12.3478 4.7304 12.1895 4.66663 12.0007 4.66663C11.8118 4.66663 11.6535 4.7304 11.526 4.85796C11.398 4.98596 11.334 5.1444 11.334 5.33329C11.334 5.52218 11.398 5.6804 11.526 5.80796C11.6535 5.93596 11.8118 5.99996 12.0007 5.99996Z" fill="#A4A4A4"/>
</g>
</svg>
