<svg width="16" height="16" viewBox="0 0 16 16" fill="none" xmlns="http://www.w3.org/2000/svg">
<g id="icon / 24 / 2person bed">
<path id="Vector" d="M3.59935 2.66663C3.21068 2.66663 2.86602 2.82663 2.56535 3.12377C2.26468 3.42091 2.13268 3.77139 2.13268 4.19044V6.47615C1.72935 6.47615 1.39935 6.62091 1.10602 6.92567C0.812682 7.23044 0.666016 7.59615 0.666016 7.99996V11.8095H1.64135L2.13268 13.3333H2.86602L3.35735 11.8095H12.6413L13.1327 13.3333H13.866L14.3573 11.8095H15.3327V7.99996C15.3327 7.59615 15.1787 7.23805 14.8927 6.92567C14.5993 6.62091 14.2693 6.47615 13.866 6.47615V4.19044C13.866 3.77139 13.7267 3.42853 13.4333 3.12377C13.14 2.81901 12.788 2.66663 12.3993 2.66663M3.59935 4.19044H7.26602V6.47615H3.59935M8.73268 4.19044H12.3993V6.47615H8.73268V4.19044Z" fill="#A4A4A4"/>
</g>
</svg>
