<svg width="16" height="16" viewBox="0 0 16 16" fill="none" xmlns="http://www.w3.org/2000/svg">
<g id="icon / 24 / bath">
<path id="Vector" d="M6.99198 2.93136C7.45982 3.00833 7.8851 3.249 8.19196 3.61044C8.49881 3.97187 8.66728 4.43057 8.66732 4.9047V6.23803H4.66732V4.9047C4.66732 4.2127 5.01932 3.60203 5.55398 3.24336C5.36197 3.07239 5.12463 2.96058 4.87053 2.9214C4.61644 2.88221 4.35643 2.91733 4.12184 3.02251C3.88724 3.12769 3.68805 3.29845 3.54827 3.51423C3.40849 3.73001 3.33407 3.9816 3.33398 4.2387V8.2387H14.0007C14.1775 8.2387 14.347 8.30894 14.4721 8.43396C14.5971 8.55898 14.6673 8.72855 14.6673 8.90536C14.6673 9.08217 14.5971 9.25174 14.4721 9.37677C14.347 9.50179 14.1775 9.57203 14.0007 9.57203V10.2387C14.0006 11.066 13.7442 11.8729 13.2666 12.5484C12.7891 13.2239 12.1139 13.7348 11.334 14.0107V14.3334C11.334 14.5102 11.2637 14.6797 11.1387 14.8048C11.0137 14.9298 10.8441 15 10.6673 15C10.4905 15 10.3209 14.9298 10.1959 14.8048C10.0709 14.6797 10.0007 14.5102 10.0007 14.3334V14.2387H6.00065V14.3334C6.00065 14.5102 5.93041 14.6797 5.80539 14.8048C5.68036 14.9298 5.5108 15 5.33398 15C5.15717 15 4.9876 14.9298 4.86258 14.8048C4.73756 14.6797 4.66732 14.5102 4.66732 14.3334V14.0107C3.88743 13.7348 3.21224 13.2239 2.73469 12.5484C2.25713 11.8729 2.00069 11.066 2.00065 10.2387V9.57203C1.82384 9.57203 1.65427 9.50179 1.52925 9.37677C1.40422 9.25174 1.33398 9.08217 1.33398 8.90536C1.33398 8.72855 1.40422 8.55898 1.52925 8.43396C1.65427 8.30894 1.82384 8.2387 2.00065 8.2387V4.2387C2.00062 3.64902 2.19605 3.07597 2.55635 2.60917C2.91666 2.14238 3.42152 1.80817 3.99198 1.65883C4.56243 1.5095 5.16629 1.55345 5.70911 1.78382C6.25192 2.01419 6.70307 2.41731 6.99198 2.93136Z" fill="#A4A4A4"/>
</g>
</svg>
