<svg width="16" height="16" viewBox="0 0 16 16" fill="none" xmlns="http://www.w3.org/2000/svg">
<g id="icon / 24 / smoke free" clip-path="url(#clip0_748_12464)">
<path id="Vector" d="M14.2327 8.48853H15.3327V10.6315H14.2327V8.48853ZM12.3993 8.48853H13.4993V10.6315H12.3993V8.48853ZM11.666 9.56003C11.666 8.96713 11.1747 8.48853 10.566 8.48853H9.95002L11.5487 10.0458C11.622 9.89577 11.666 9.73147 11.666 9.56003ZM13.0227 2.58098C13.3013 2.30954 13.514 1.98094 13.6387 1.61663C13.6674 1.53484 13.6759 1.44763 13.6636 1.36203C13.6512 1.27644 13.6184 1.19488 13.5677 1.12394C13.517 1.053 13.4499 0.994685 13.3718 0.953698C13.2936 0.912712 13.2067 0.89021 13.118 0.888013C12.8687 0.895156 12.6707 1.0666 12.59 1.30233C12.458 1.69521 12.1353 2.00952 11.732 2.1381C11.4827 2.21667 11.2993 2.41669 11.2993 2.6667V2.77386C11.2993 3.03816 11.4973 3.26675 11.7687 3.30961C13.184 3.53105 14.2327 4.73827 14.2327 6.18123V7.23844C14.2327 7.53132 14.482 7.77419 14.7827 7.77419C15.0833 7.77419 15.3327 7.53132 15.3327 7.23844V6.17409C15.3327 4.58826 14.394 3.21674 13.0227 2.58098ZM9.91335 5.38117H10.9547C11.7247 5.38117 12.3993 5.90978 12.3993 6.84556V7.23844C12.3993 7.53132 12.6413 7.77419 12.9493 7.77419H12.9567C13.2573 7.77419 13.5067 7.53846 13.5067 7.23844V6.60269C13.5067 5.30974 12.3333 4.34539 10.962 4.34539H10.0087C9.26068 4.34539 8.58602 3.82393 8.49068 3.09531C8.40268 2.41669 8.82802 1.88094 9.44402 1.71664C9.67868 1.65235 9.84002 1.44519 9.84002 1.20232C9.84002 0.852296 9.50268 0.587993 9.15802 0.687999C8.63884 0.834042 8.18359 1.14276 7.86276 1.56634C7.54193 1.98991 7.37343 2.50472 7.38335 3.03102C7.39802 4.35253 8.56401 5.38117 9.91335 5.38117ZM2.22068 2.98101C2.15279 2.91488 2.07219 2.86242 1.98348 2.82663C1.89477 2.79083 1.7997 2.77241 1.70368 2.77241C1.60767 2.77241 1.51259 2.79083 1.42388 2.82663C1.33518 2.86242 1.25458 2.91488 1.18668 2.98101C1.11879 3.04715 1.06493 3.12566 1.02819 3.21207C0.991446 3.29848 0.972534 3.39109 0.972534 3.48462C0.972534 3.57815 0.991446 3.67076 1.02819 3.75717C1.06493 3.84358 1.11879 3.92209 1.18668 3.98822L5.79935 8.48853H1.76602C1.15735 8.48853 0.666016 8.96713 0.666016 9.56003C0.666016 10.1529 1.15735 10.6315 1.76602 10.6315H7.99935L12.612 15.1247C12.7491 15.2583 12.9351 15.3333 13.129 15.3333C13.3229 15.3333 13.5089 15.2583 13.646 15.1247C13.7831 14.9911 13.8602 14.81 13.8602 14.6211C13.8602 14.4322 13.7831 14.251 13.646 14.1175L2.22068 2.98101Z" fill="#A4A4A4"/>
</g>
<defs>
<clipPath id="clip0_748_12464">
<rect width="16" height="16" fill="white"/>
</clipPath>
</defs>
</svg>
