<svg width="16" height="16" viewBox="0 0 16 16" fill="none" xmlns="http://www.w3.org/2000/svg">
<g id="icon / 24 / matress">
<path id="Vector" d="M1.75974 2C2.14324 2 2.45307 2.38304 2.45307 2.85714V9.71429H7.30641V5.42857C7.30641 4.95446 7.61624 4.57143 7.99974 4.57143H12.8531C14.0014 4.57143 14.9331 5.72321 14.9331 7.14286V13.8095C14.9331 14.2836 14.6232 14.6667 14.2397 14.6667C13.8562 14.6667 13.5464 14.2836 13.5464 13.8095V12.2857H2.45307V13.8095C2.45307 14.2836 2.14324 14.6667 1.75974 14.6667C1.37624 14.6667 1.06641 14.2836 1.06641 13.8095V2.85714C1.06641 2.38304 1.37624 2 1.75974 2ZM4.87974 4.57143C5.33945 4.57143 5.78033 4.79719 6.10539 5.19906C6.43045 5.60092 6.61307 6.14596 6.61307 6.71429C6.61307 7.28261 6.43045 7.82765 6.10539 8.22951C5.78033 8.63138 5.33945 8.85714 4.87974 8.85714C4.42003 8.85714 3.97915 8.63138 3.65409 8.22951C3.32902 7.82765 3.14641 7.28261 3.14641 6.71429C3.14641 6.14596 3.32902 5.60092 3.65409 5.19906C3.97915 4.79719 4.42003 4.57143 4.87974 4.57143Z" fill="#A4A4A4"/>
</g>
</svg>
