<svg width="16" height="16" viewBox="0 0 16 16" fill="none" xmlns="http://www.w3.org/2000/svg">
<g id="icon / 24 / 2 beds">
<path id="Vector" d="M7.18519 6.47615V4.19044C7.18519 3.7863 7.0291 3.39871 6.75127 3.11294C6.47344 2.82717 6.09662 2.66663 5.7037 2.66663H2.96296C2.57005 2.66663 2.19323 2.82717 1.9154 3.11294C1.63757 3.39871 1.48148 3.7863 1.48148 4.19044V6.47615C1.08857 6.47615 0.711748 6.63669 0.433916 6.92246C0.156084 7.20823 0 7.59582 0 7.99996V11.8095H0.985185L1.48148 13.3333H2.22222L2.71852 11.8095H5.94815L6.44445 13.3333H7.18519L7.68148 11.8095H8.66667V7.99996C8.66667 7.59582 8.51058 7.20823 8.23275 6.92246C7.95492 6.63669 7.5781 6.47615 7.18519 6.47615ZM5.7037 6.47615H2.96296V4.19044H5.7037V6.47615Z" fill="#A4A4A4"/>
<path id="Vector_2" d="M14.5192 6.47615V4.19044C14.5192 3.7863 14.3631 3.39871 14.0853 3.11294C13.8074 2.82717 13.4306 2.66663 13.0377 2.66663H10.2969C9.90403 2.66663 9.52721 2.82717 9.24938 3.11294C8.97155 3.39871 8.81547 3.7863 8.81547 4.19044V6.47615C8.42255 6.47615 8.04573 6.63669 7.7679 6.92246C7.49007 7.20823 7.33398 7.59582 7.33398 7.99996V11.8095H8.31917L8.81547 13.3333H9.55621L10.0525 11.8095H13.2821L13.7784 13.3333H14.5192L15.0155 11.8095H16.0007V7.99996C16.0007 7.59582 15.8446 7.20823 15.5667 6.92246C15.2889 6.63669 14.9121 6.47615 14.5192 6.47615ZM13.0377 6.47615H10.2969V4.19044H13.0377V6.47615Z" fill="#A4A4A4"/>
</g>
</svg>
