<svg xmlns="http://www.w3.org/2000/svg" xmlns:xlink="http://www.w3.org/1999/xlink"><defs>
<clipPath id="clip0_501_2424">
<rect width="16" height="16" fill="white"/>
</clipPath>

<clipPath id="clip0_501_18447">
<rect width="32" height="32" fill="white" transform="translate(0.5)"/>
</clipPath>
</defs><symbol id="icon-account" viewBox="0 0 16 16"><g fill="none">
<path fill-rule="evenodd" clip-rule="evenodd" d="M10.4749 2.02513C9.8185 1.36875 8.92826 1 8 1C7.07174 1 6.1815 1.36875 5.52513 2.02513C4.86875 2.6815 4.5 3.57174 4.5 4.5C4.5 5.42826 4.86875 6.3185 5.52513 6.97487C6.1815 7.63125 7.07174 8 8 8C8.92826 8 9.8185 7.63125 10.4749 6.97487C11.1313 6.3185 11.5 5.42826 11.5 4.5C11.5 3.57174 11.1313 2.6815 10.4749 2.02513ZM2.4 15C2.4 15 1 15 1 13.8333C1 12.6667 2.4 9.16667 8 9.16667C13.6 9.16667 15 12.6667 15 13.8333C15 15 13.6 15 13.6 15H2.4Z" fill="#353535"/>
</g></symbol><symbol id="icon-arrow-next" viewBox="0 0 24 24"><g fill="none">
<rect width="24" height="24" rx="12" fill="white" fill-opacity="0.72"/>
<path d="M10.7759 7.79399C10.4467 7.46616 9.91368 7.46838 9.58717 7.79895C9.2625 8.12764 9.2647 8.65697 9.59209 8.98296L12.2659 11.6454C12.4622 11.8408 12.4622 12.1586 12.2659 12.354L9.59209 15.0165C9.2647 15.3424 9.2625 15.8718 9.58717 16.2005C9.91368 16.531 10.4467 16.5333 10.7759 16.2054L14.2883 12.7084C14.6808 12.3175 14.6808 11.6819 14.2883 11.2911L10.7759 7.79399Z" fill="#383838"/>
</g></symbol><symbol id="icon-arrow-prev" viewBox="0 0 24 24"><g fill="none">
<rect width="24" height="24" rx="12" fill="white" fill-opacity="0.72"/>
<path d="M13.2241 7.79399C13.5533 7.46616 14.0863 7.46838 14.4128 7.79895C14.7375 8.12764 14.7353 8.65697 14.4079 8.98296L11.7341 11.6454C11.5378 11.8408 11.5378 12.1586 11.7341 12.354L14.4079 15.0165C14.7353 15.3424 14.7375 15.8718 14.4128 16.2005C14.0863 16.531 13.5533 16.5333 13.2241 16.2054L9.71174 12.7084C9.31916 12.3175 9.31916 11.6819 9.71173 11.2911L13.2241 7.79399Z" fill="#383838"/>
</g></symbol><symbol id="icon-calendar" viewBox="0 0 18 18"><g fill="none">
<path d="M4.07812 8.01562H8.01562V11.9531H4.07812M14.9062 14.9062H3.09375V7.03125H14.9062M15.3438 2.7H14.5781V1.125H13.0469V2.7H4.95312V1.125H3.42188V2.7H2.65625C2.25014 2.7 1.86066 2.86594 1.57349 3.16131C1.28633 3.45668 1.125 3.85728 1.125 4.275V15.3C1.125 15.7177 1.28633 16.1183 1.57349 16.4137C1.86066 16.7091 2.25014 16.875 2.65625 16.875H15.3438C15.7499 16.875 16.1393 16.7091 16.4265 16.4137C16.7137 16.1183 16.875 15.7177 16.875 15.3V4.275C16.875 3.85728 16.7137 3.45668 16.4265 3.16131C16.1393 2.86594 15.7499 2.7 15.3438 2.7Z" fill="#C8C8C8"/>
</g></symbol><symbol id="icon-chat" viewBox="0 0 16 16"><g fill="none">
<g id="fluent:chat-32-filled">
<g id="Vector">
<path d="M1.00001 8C1.00001 4.134 4.13401 1 8.00001 1C11.866 1 15 4.134 15 8C15 11.866 11.866 15 8.00001 15C6.81601 15 5.69901 14.7055 4.72001 14.1855L1.95601 14.9715C1.82755 15.0079 1.69169 15.0094 1.56248 14.9757C1.43327 14.9421 1.31538 14.8746 1.22099 14.7801C1.1266 14.6857 1.05914 14.5678 1.02556 14.4385C0.991989 14.3093 0.993522 14.1734 1.03001 14.045L1.81601 11.2815C1.27883 10.2712 0.998589 9.14422 1.00001 8ZM5.00001 6.5C5.00001 6.63261 5.05268 6.75979 5.14645 6.85355C5.24022 6.94732 5.3674 7 5.50001 7H10.5C10.6326 7 10.7598 6.94732 10.8536 6.85355C10.9473 6.75979 11 6.63261 11 6.5C11 6.36739 10.9473 6.24021 10.8536 6.14645C10.7598 6.05268 10.6326 6 10.5 6H5.50001C5.3674 6 5.24022 6.05268 5.14645 6.14645C5.05268 6.24021 5.00001 6.36739 5.00001 6.5ZM5.50001 9C5.3674 9 5.24022 9.05268 5.14645 9.14645C5.05268 9.24021 5.00001 9.36739 5.00001 9.5C5.00001 9.63261 5.05268 9.75979 5.14645 9.85355C5.24022 9.94732 5.3674 10 5.50001 10H8.50001C8.63261 10 8.75979 9.94732 8.85356 9.85355C8.94733 9.75979 9.00001 9.63261 9.00001 9.5C9.00001 9.36739 8.94733 9.24021 8.85356 9.14645C8.75979 9.05268 8.63261 9 8.50001 9H5.50001Z" fill="#06BADA"/>
<path d="M1.00001 8C1.00001 4.134 4.13401 1 8.00001 1C11.866 1 15 4.134 15 8C15 11.866 11.866 15 8.00001 15C6.81601 15 5.69901 14.7055 4.72001 14.1855L1.95601 14.9715C1.82755 15.0079 1.69169 15.0094 1.56248 14.9757C1.43327 14.9421 1.31538 14.8746 1.22099 14.7801C1.1266 14.6857 1.05914 14.5678 1.02556 14.4385C0.991989 14.3093 0.993522 14.1734 1.03001 14.045L1.81601 11.2815C1.27883 10.2712 0.998589 9.14422 1.00001 8ZM5.00001 6.5C5.00001 6.63261 5.05268 6.75979 5.14645 6.85355C5.24022 6.94732 5.3674 7 5.50001 7H10.5C10.6326 7 10.7598 6.94732 10.8536 6.85355C10.9473 6.75979 11 6.63261 11 6.5C11 6.36739 10.9473 6.24021 10.8536 6.14645C10.7598 6.05268 10.6326 6 10.5 6H5.50001C5.3674 6 5.24022 6.05268 5.14645 6.14645C5.05268 6.24021 5.00001 6.36739 5.00001 6.5ZM5.50001 9C5.3674 9 5.24022 9.05268 5.14645 9.14645C5.05268 9.24021 5.00001 9.36739 5.00001 9.5C5.00001 9.63261 5.05268 9.75979 5.14645 9.85355C5.24022 9.94732 5.3674 10 5.50001 10H8.50001C8.63261 10 8.75979 9.94732 8.85356 9.85355C8.94733 9.75979 9.00001 9.63261 9.00001 9.5C9.00001 9.36739 8.94733 9.24021 8.85356 9.14645C8.75979 9.05268 8.63261 9 8.50001 9H5.50001Z" fill="black" fill-opacity="0.4"/>
</g>
</g>
</g></symbol><symbol id="icon-down" viewBox="0 0 17 16"><g fill="none">
<path fill-rule="evenodd" clip-rule="evenodd" d="M3.00725 5.29289C2.61672 5.68342 2.61672 6.31658 3.00725 6.70711L8.00725 11.7071C8.39777 12.0976 9.03094 12.0976 9.42146 11.7071L14.4215 6.70711C14.812 6.31658 14.812 5.68342 14.4215 5.29289C14.0309 4.90237 13.3978 4.90237 13.0072 5.29289L8.71436 9.58579L4.42146 5.29289C4.03094 4.90237 3.39777 4.90237 3.00725 5.29289Z" fill="currentColor"/>
</g></symbol><symbol id="icon-mail" viewBox="0 0 16 16"><g fill="none">
<g id="icon / 16 / mail">
<g id="vector">
<path d="M1 6.74667V10.5C1 11.163 1.27656 11.7989 1.76884 12.2678C2.26113 12.7366 2.92881 13 3.625 13H12.375C13.0712 13 13.7389 12.7366 14.2312 12.2678C14.7234 11.7989 15 11.163 15 10.5V6.74667L8.35875 9.59333C8.24595 9.64163 8.12368 9.66659 8 9.66659C7.87632 9.66659 7.75405 9.64163 7.64125 9.59333L1 6.74667ZM1.06475 4.94667L8 7.92L14.9353 4.94667C14.8035 4.39379 14.4783 3.89998 14.0131 3.54627C13.5479 3.19255 12.9703 2.99992 12.375 3H3.625C3.02972 2.99992 2.45208 3.19255 1.98687 3.54627C1.52166 3.89998 1.19651 4.39379 1.06475 4.94667Z" fill="#06BADA"/>
<path d="M1 6.74667V10.5C1 11.163 1.27656 11.7989 1.76884 12.2678C2.26113 12.7366 2.92881 13 3.625 13H12.375C13.0712 13 13.7389 12.7366 14.2312 12.2678C14.7234 11.7989 15 11.163 15 10.5V6.74667L8.35875 9.59333C8.24595 9.64163 8.12368 9.66659 8 9.66659C7.87632 9.66659 7.75405 9.64163 7.64125 9.59333L1 6.74667ZM1.06475 4.94667L8 7.92L14.9353 4.94667C14.8035 4.39379 14.4783 3.89998 14.0131 3.54627C13.5479 3.19255 12.9703 2.99992 12.375 3H3.625C3.02972 2.99992 2.45208 3.19255 1.98687 3.54627C1.52166 3.89998 1.19651 4.39379 1.06475 4.94667Z" fill="black" fill-opacity="0.4"/>
</g>
</g>
</g></symbol><symbol id="icon-map-marker" viewBox="0 0 16 16"><g fill="none">
<path fill-rule="evenodd" clip-rule="evenodd" d="M8 13.3171C5.01633 10.5895 4 8.58051 4 7.10311C4 4.72628 5.78057 3 8 3C10.2194 3 12 4.72628 12 7.10311C12 8.58051 10.9837 10.5895 8 13.3171ZM7.33468 15.4066C7.71386 15.7445 8.28614 15.7445 8.66532 15.4066L9.03073 15.0809C12.3221 12.1477 14 9.54211 14 7.10311C14 3.64043 11.3426 1 8 1C4.65737 1 2 3.64043 2 7.10311C2 9.54211 3.67789 12.1477 6.96927 15.0809L7.33468 15.4066Z" fill="#353535"/>
<path fill-rule="evenodd" clip-rule="evenodd" d="M8 5C9.10457 5 10 5.89543 10 7C10 8.10457 9.10457 9 8 9C6.89543 9 6 8.10457 6 7C6 5.89543 6.89543 5 8 5Z" fill="#353535"/>
</g></symbol><symbol id="icon-menu-toggle" viewBox="0 0 14 14"><g fill="none">
<g id="Group">
<path id="Vector" d="M4.33366 3.6554C4.15685 3.6554 3.98728 3.72563 3.86225 3.85066C3.73723 3.97568 3.66699 4.14525 3.66699 4.32206C3.66699 4.49887 3.73723 4.66844 3.86225 4.79347C3.98728 4.91849 4.15685 4.98873 4.33366 4.98873H9.66699C9.8438 4.98873 10.0134 4.91849 10.1384 4.79347C10.2634 4.66844 10.3337 4.49887 10.3337 4.32206C10.3337 4.14525 10.2634 3.97568 10.1384 3.85066C10.0134 3.72563 9.8438 3.6554 9.66699 3.6554H4.33366ZM3.66699 7.00006C3.66699 6.82325 3.73723 6.65368 3.86225 6.52866C3.98728 6.40363 4.15685 6.3334 4.33366 6.3334H9.66699C9.8438 6.3334 10.0134 6.40363 10.1384 6.52866C10.2634 6.65368 10.3337 6.82325 10.3337 7.00006C10.3337 7.17687 10.2634 7.34644 10.1384 7.47147C10.0134 7.59649 9.8438 7.66673 9.66699 7.66673H4.33366C4.15685 7.66673 3.98728 7.59649 3.86225 7.47147C3.73723 7.34644 3.66699 7.17687 3.66699 7.00006ZM4.33366 9.0114C4.15685 9.0114 3.98728 9.08163 3.86225 9.20666C3.73723 9.33168 3.66699 9.50125 3.66699 9.67806C3.66699 9.85487 3.73723 10.0244 3.86225 10.1495C3.98728 10.2745 4.15685 10.3447 4.33366 10.3447H9.66699C9.8438 10.3447 10.0134 10.2745 10.1384 10.1495C10.2634 10.0244 10.3337 9.85487 10.3337 9.67806C10.3337 9.50125 10.2634 9.33168 10.1384 9.20666C10.0134 9.08163 9.8438 9.0114 9.66699 9.0114H4.33366Z" fill="#06BADA"/>
<path id="Vector_2" fill-rule="evenodd" clip-rule="evenodd" d="M13.6668 7.00004C13.6668 10.682 10.6822 13.6667 7.00016 13.6667C3.31816 13.6667 0.333496 10.682 0.333496 7.00004C0.333496 3.31804 3.31816 0.333374 7.00016 0.333374C10.6822 0.333374 13.6668 3.31804 13.6668 7.00004ZM12.3335 7.00004C12.3335 8.41453 11.7716 9.77108 10.7714 10.7713C9.7712 11.7715 8.41465 12.3334 7.00016 12.3334C5.58567 12.3334 4.22912 11.7715 3.22893 10.7713C2.22873 9.77108 1.66683 8.41453 1.66683 7.00004C1.66683 5.58555 2.22873 4.229 3.22893 3.2288C4.22912 2.22861 5.58567 1.66671 7.00016 1.66671C8.41465 1.66671 9.7712 2.22861 10.7714 3.2288C11.7716 4.229 12.3335 5.58555 12.3335 7.00004Z" fill="#06BADA"/>
</g>
</g></symbol><symbol id="icon-phone" viewBox="0 0 16 16"><g fill="none">
<path d="M10.1648 10.74L11.2848 9.62002C11.4357 9.47104 11.6265 9.36906 11.8342 9.32646C12.0419 9.28385 12.2575 9.30246 12.4548 9.38002L13.8198 9.92502C14.0192 10.006 14.1902 10.1441 14.3112 10.3221C14.4322 10.5 14.4979 10.7098 14.4998 10.925V13.425C14.4987 13.5714 14.4679 13.716 14.4094 13.8502C14.3508 13.9844 14.2657 14.1054 14.1592 14.2058C14.0527 14.3062 13.927 14.3841 13.7896 14.4346C13.6522 14.4852 13.506 14.5074 13.3598 14.5C3.79482 13.905 1.86482 5.80502 1.49982 2.70502C1.48288 2.55279 1.49836 2.39869 1.54525 2.25288C1.59213 2.10706 1.66936 1.97282 1.77186 1.85899C1.87435 1.74516 1.99978 1.65432 2.1399 1.59245C2.28002 1.53058 2.43165 1.49908 2.58482 1.50002H4.99982C5.21533 1.50066 5.42571 1.56575 5.60392 1.68694C5.78213 1.80812 5.92001 1.97984 5.99982 2.18002L6.54482 3.54502C6.62495 3.74155 6.64539 3.95734 6.6036 4.16543C6.5618 4.37351 6.45962 4.56467 6.30982 4.71502L5.18982 5.83502C5.18982 5.83502 5.83482 10.2 10.1648 10.74Z" fill="currentColor"/>
</g></symbol><symbol id="icon-play" viewBox="0 0 24 24"><g fill="none">
<path d="M6.2325 20.625C5.9447 20.6244 5.66199 20.549 5.41219 20.4061C4.84969 20.0873 4.5 19.4686 4.5 18.7968V5.20309C4.5 4.52949 4.84969 3.91262 5.41219 3.59387C5.66794 3.44688 5.95848 3.3713 6.25343 3.37501C6.54839 3.37872 6.83693 3.46159 7.08891 3.61496L18.7069 10.5693C18.949 10.7212 19.1486 10.932 19.287 11.1821C19.4253 11.4321 19.4979 11.7132 19.4979 11.999C19.4979 12.2848 19.4253 12.5659 19.287 12.816C19.1486 13.0661 18.949 13.2769 18.7069 13.4287L7.08703 20.385C6.82917 20.5409 6.53382 20.6238 6.2325 20.625Z" fill="#06BADA"/>
<path d="M6.2325 20.625C5.9447 20.6244 5.66199 20.549 5.41219 20.4061C4.84969 20.0873 4.5 19.4686 4.5 18.7968V5.20309C4.5 4.52949 4.84969 3.91262 5.41219 3.59387C5.66794 3.44688 5.95848 3.3713 6.25343 3.37501C6.54839 3.37872 6.83693 3.46159 7.08891 3.61496L18.7069 10.5693C18.949 10.7212 19.1486 10.932 19.287 11.1821C19.4253 11.4321 19.4979 11.7132 19.4979 11.999C19.4979 12.2848 19.4253 12.5659 19.287 12.816C19.1486 13.0661 18.949 13.2769 18.7069 13.4287L7.08703 20.385C6.82917 20.5409 6.53382 20.6238 6.2325 20.625Z" fill="black" fill-opacity="0.4"/>
</g></symbol><symbol id="icon-reset" viewBox="0 0 16 16"><g fill="none">
<g clip-path="url(#clip0_501_2424)">
<path fill-rule="evenodd" clip-rule="evenodd" d="M8.00002 0.904785C7.44774 0.904785 7.00002 1.3525 7.00002 1.90479C7.00002 2.45707 7.44774 2.90479 8.00002 2.90479C9.00777 2.90479 9.99288 3.20362 10.8308 3.76349C11.6687 4.32336 12.3218 5.11913 12.7074 6.05016C13.0931 6.98119 13.194 8.00568 12.9974 8.99405C12.8008 9.98243 12.3155 10.8903 11.6029 11.6029C10.8903 12.3155 9.98243 12.8008 8.99405 12.9974C8.00568 13.194 6.98119 13.0931 6.05016 12.7074C5.11913 12.3218 4.32336 11.6687 3.76349 10.8308C3.20362 9.99288 2.90479 9.00777 2.90479 8.00002C2.90479 6.81734 3.29419 5.72231 3.9524 4.85307V5.71412C3.9524 6.26641 4.40012 6.71412 4.9524 6.71412C5.50469 6.71412 5.9524 6.26641 5.9524 5.71412V2.68432C5.95391 2.60331 5.94557 2.52163 5.9269 2.44109C5.89226 2.29074 5.82372 2.15334 5.72975 2.03738C5.67047 1.96396 5.60214 1.90067 5.52735 1.84821C5.36471 1.73373 5.16641 1.6665 4.9524 1.6665H1.90479C1.3525 1.6665 0.904785 2.11422 0.904785 2.6665C0.904785 3.21879 1.3525 3.6665 1.90479 3.6665H2.34221C1.43399 4.87527 0.904785 6.38501 0.904785 8.00002C0.904785 9.40333 1.32091 10.7751 2.10055 11.9419C2.88018 13.1087 3.98831 14.0181 5.28479 14.5552C6.58128 15.0922 8.00789 15.2327 9.38424 14.9589C10.7606 14.6852 12.0248 14.0094 13.0171 13.0171C14.0094 12.0248 14.6852 10.7606 14.9589 9.38424C15.2327 8.00789 15.0922 6.58128 14.5552 5.28479C14.0181 3.98831 13.1087 2.88018 11.9419 2.10055C10.7751 1.32091 9.40333 0.904785 8.00002 0.904785Z" fill="#353535"/>
</g>

</g></symbol><symbol id="icon-right" viewBox="0 0 17 16"><g fill="none">
<path d="M6.86792 2.39198C6.42891 1.95488 5.71824 1.95784 5.28289 2.3986C4.85 2.83686 4.85294 3.54263 5.28945 3.97728L8.9732 7.6453C9.16947 7.84073 9.16947 8.15848 8.9732 8.35392L5.28945 12.0219C4.85294 12.4566 4.85 13.1624 5.28289 13.6006C5.71824 14.0414 6.42891 14.0443 6.86792 13.6072L11.7883 8.70825C12.1808 8.31738 12.1808 7.68184 11.7883 7.29097L6.86792 2.39198Z" fill="#656565"/>
</g></symbol><symbol id="icon-vk" viewBox="0 0 33 32"><g fill="none">
<g id="vk" clip-path="url(#clip0_501_18447)">
<g id="Vector">
<path d="M21.412 0H11.588C2.62267 0 0.5 2.12267 0.5 11.088V20.912C0.5 29.8773 2.62267 32 11.588 32H21.412C30.3773 32 32.5 29.8773 32.5 20.912V11.088C32.5 2.12267 30.3547 0 21.412 0ZM26.3347 22.8307H24.0093C23.1293 22.8307 22.8573 22.1307 21.276 20.528C19.8987 19.1947 19.2893 19.0147 18.9507 19.0147C18.476 19.0147 18.34 19.1507 18.34 19.8053V21.9053C18.34 22.4707 18.16 22.8093 16.6693 22.8093C14.208 22.8093 11.4747 21.3187 9.556 18.54C6.66533 14.476 5.87333 11.4267 5.87333 10.7947C5.87333 10.456 6.00933 10.14 6.664 10.14H8.98933C9.576 10.14 9.80267 10.4107 10.0293 11.0427C11.18 14.3627 13.1 17.276 13.8907 17.276C14.184 17.276 14.32 17.14 14.32 16.396V12.9613C14.2293 11.38 13.3933 11.2453 13.3933 10.6813C13.3933 10.4093 13.62 10.1387 13.98 10.1387H17.6387C18.136 10.1387 18.316 10.4093 18.316 10.996V15.6267C18.316 16.1227 18.5427 16.304 18.6773 16.304C18.9707 16.304 19.22 16.1227 19.7613 15.5813C21.4333 13.7067 22.6293 10.816 22.6293 10.816C22.788 10.4773 23.0587 10.1613 23.6467 10.1613H25.972C26.672 10.1613 26.8307 10.5213 26.672 11.0187C26.3787 12.3747 23.5333 16.3933 23.5333 16.3933C23.2853 16.8 23.1947 16.98 23.5333 17.4333C23.7813 17.772 24.5947 18.472 25.1373 19.104C26.1307 20.2333 26.8973 21.1813 27.1013 21.8373C27.328 22.4907 26.988 22.8293 26.3333 22.8293L26.3347 22.8307Z" fill="white"/>
<path d="M21.412 0H11.588C2.62267 0 0.5 2.12267 0.5 11.088V20.912C0.5 29.8773 2.62267 32 11.588 32H21.412C30.3773 32 32.5 29.8773 32.5 20.912V11.088C32.5 2.12267 30.3547 0 21.412 0ZM26.3347 22.8307H24.0093C23.1293 22.8307 22.8573 22.1307 21.276 20.528C19.8987 19.1947 19.2893 19.0147 18.9507 19.0147C18.476 19.0147 18.34 19.1507 18.34 19.8053V21.9053C18.34 22.4707 18.16 22.8093 16.6693 22.8093C14.208 22.8093 11.4747 21.3187 9.556 18.54C6.66533 14.476 5.87333 11.4267 5.87333 10.7947C5.87333 10.456 6.00933 10.14 6.664 10.14H8.98933C9.576 10.14 9.80267 10.4107 10.0293 11.0427C11.18 14.3627 13.1 17.276 13.8907 17.276C14.184 17.276 14.32 17.14 14.32 16.396V12.9613C14.2293 11.38 13.3933 11.2453 13.3933 10.6813C13.3933 10.4093 13.62 10.1387 13.98 10.1387H17.6387C18.136 10.1387 18.316 10.4093 18.316 10.996V15.6267C18.316 16.1227 18.5427 16.304 18.6773 16.304C18.9707 16.304 19.22 16.1227 19.7613 15.5813C21.4333 13.7067 22.6293 10.816 22.6293 10.816C22.788 10.4773 23.0587 10.1613 23.6467 10.1613H25.972C26.672 10.1613 26.8307 10.5213 26.672 11.0187C26.3787 12.3747 23.5333 16.3933 23.5333 16.3933C23.2853 16.8 23.1947 16.98 23.5333 17.4333C23.7813 17.772 24.5947 18.472 25.1373 19.104C26.1307 20.2333 26.8973 21.1813 27.1013 21.8373C27.328 22.4907 26.988 22.8293 26.3333 22.8293L26.3347 22.8307Z" fill="#06BADA" fill-opacity="0.2"/>
</g>
</g>

</g></symbol></svg>