<svg width="24" height="24" viewBox="0 0 24 24" fill="none" xmlns="http://www.w3.org/2000/svg">
<path d="M6.2325 20.625C5.9447 20.6244 5.66199 20.549 5.41219 20.4061C4.84969 20.0873 4.5 19.4686 4.5 18.7968V5.20309C4.5 4.52949 4.84969 3.91262 5.41219 3.59387C5.66794 3.44688 5.95848 3.3713 6.25343 3.37501C6.54839 3.37872 6.83693 3.46159 7.08891 3.61496L18.7069 10.5693C18.949 10.7212 19.1486 10.932 19.287 11.1821C19.4253 11.4321 19.4979 11.7132 19.4979 11.999C19.4979 12.2848 19.4253 12.5659 19.287 12.816C19.1486 13.0661 18.949 13.2769 18.7069 13.4287L7.08703 20.385C6.82917 20.5409 6.53382 20.6238 6.2325 20.625Z" fill="#06BADA"/>
<path d="M6.2325 20.625C5.9447 20.6244 5.66199 20.549 5.41219 20.4061C4.84969 20.0873 4.5 19.4686 4.5 18.7968V5.20309C4.5 4.52949 4.84969 3.91262 5.41219 3.59387C5.66794 3.44688 5.95848 3.3713 6.25343 3.37501C6.54839 3.37872 6.83693 3.46159 7.08891 3.61496L18.7069 10.5693C18.949 10.7212 19.1486 10.932 19.287 11.1821C19.4253 11.4321 19.4979 11.7132 19.4979 11.999C19.4979 12.2848 19.4253 12.5659 19.287 12.816C19.1486 13.0661 18.949 13.2769 18.7069 13.4287L7.08703 20.385C6.82917 20.5409 6.53382 20.6238 6.2325 20.625Z" fill="black" fill-opacity="0.4"/>
</svg>
