<svg width="18" height="18" viewBox="0 0 18 18" fill="none" xmlns="http://www.w3.org/2000/svg">
<path d="M4.07812 8.01562H8.01562V11.9531H4.07812M14.9062 14.9062H3.09375V7.03125H14.9062M15.3438 2.7H14.5781V1.125H13.0469V2.7H4.95312V1.125H3.42188V2.7H2.65625C2.25014 2.7 1.86066 2.86594 1.57349 3.16131C1.28633 3.45668 1.125 3.85728 1.125 4.275V15.3C1.125 15.7177 1.28633 16.1183 1.57349 16.4137C1.86066 16.7091 2.25014 16.875 2.65625 16.875H15.3438C15.7499 16.875 16.1393 16.7091 16.4265 16.4137C16.7137 16.1183 16.875 15.7177 16.875 15.3V4.275C16.875 3.85728 16.7137 3.45668 16.4265 3.16131C16.1393 2.86594 15.7499 2.7 15.3438 2.7Z" fill="#C8C8C8"/>
</svg>
