<svg width="16" height="16" viewBox="0 0 16 16" fill="none" xmlns="http://www.w3.org/2000/svg">
<g clip-path="url(#clip0_501_2424)">
<path fill-rule="evenodd" clip-rule="evenodd" d="M8.00002 0.904785C7.44774 0.904785 7.00002 1.3525 7.00002 1.90479C7.00002 2.45707 7.44774 2.90479 8.00002 2.90479C9.00777 2.90479 9.99288 3.20362 10.8308 3.76349C11.6687 4.32336 12.3218 5.11913 12.7074 6.05016C13.0931 6.98119 13.194 8.00568 12.9974 8.99405C12.8008 9.98243 12.3155 10.8903 11.6029 11.6029C10.8903 12.3155 9.98243 12.8008 8.99405 12.9974C8.00568 13.194 6.98119 13.0931 6.05016 12.7074C5.11913 12.3218 4.32336 11.6687 3.76349 10.8308C3.20362 9.99288 2.90479 9.00777 2.90479 8.00002C2.90479 6.81734 3.29419 5.72231 3.9524 4.85307V5.71412C3.9524 6.26641 4.40012 6.71412 4.9524 6.71412C5.50469 6.71412 5.9524 6.26641 5.9524 5.71412V2.68432C5.95391 2.60331 5.94557 2.52163 5.9269 2.44109C5.89226 2.29074 5.82372 2.15334 5.72975 2.03738C5.67047 1.96396 5.60214 1.90067 5.52735 1.84821C5.36471 1.73373 5.16641 1.6665 4.9524 1.6665H1.90479C1.3525 1.6665 0.904785 2.11422 0.904785 2.6665C0.904785 3.21879 1.3525 3.6665 1.90479 3.6665H2.34221C1.43399 4.87527 0.904785 6.38501 0.904785 8.00002C0.904785 9.40333 1.32091 10.7751 2.10055 11.9419C2.88018 13.1087 3.98831 14.0181 5.28479 14.5552C6.58128 15.0922 8.00789 15.2327 9.38424 14.9589C10.7606 14.6852 12.0248 14.0094 13.0171 13.0171C14.0094 12.0248 14.6852 10.7606 14.9589 9.38424C15.2327 8.00789 15.0922 6.58128 14.5552 5.28479C14.0181 3.98831 13.1087 2.88018 11.9419 2.10055C10.7751 1.32091 9.40333 0.904785 8.00002 0.904785Z" fill="#353535"/>
</g>
<defs>
<clipPath id="clip0_501_2424">
<rect width="16" height="16" fill="white"/>
</clipPath>
</defs>
</svg>
