<svg width="14" height="14" viewBox="0 0 14 14" fill="none" xmlns="http://www.w3.org/2000/svg">
<g id="Group">
<path id="Vector" d="M4.33366 3.6554C4.15685 3.6554 3.98728 3.72563 3.86225 3.85066C3.73723 3.97568 3.66699 4.14525 3.66699 4.32206C3.66699 4.49887 3.73723 4.66844 3.86225 4.79347C3.98728 4.91849 4.15685 4.98873 4.33366 4.98873H9.66699C9.8438 4.98873 10.0134 4.91849 10.1384 4.79347C10.2634 4.66844 10.3337 4.49887 10.3337 4.32206C10.3337 4.14525 10.2634 3.97568 10.1384 3.85066C10.0134 3.72563 9.8438 3.6554 9.66699 3.6554H4.33366ZM3.66699 7.00006C3.66699 6.82325 3.73723 6.65368 3.86225 6.52866C3.98728 6.40363 4.15685 6.3334 4.33366 6.3334H9.66699C9.8438 6.3334 10.0134 6.40363 10.1384 6.52866C10.2634 6.65368 10.3337 6.82325 10.3337 7.00006C10.3337 7.17687 10.2634 7.34644 10.1384 7.47147C10.0134 7.59649 9.8438 7.66673 9.66699 7.66673H4.33366C4.15685 7.66673 3.98728 7.59649 3.86225 7.47147C3.73723 7.34644 3.66699 7.17687 3.66699 7.00006ZM4.33366 9.0114C4.15685 9.0114 3.98728 9.08163 3.86225 9.20666C3.73723 9.33168 3.66699 9.50125 3.66699 9.67806C3.66699 9.85487 3.73723 10.0244 3.86225 10.1495C3.98728 10.2745 4.15685 10.3447 4.33366 10.3447H9.66699C9.8438 10.3447 10.0134 10.2745 10.1384 10.1495C10.2634 10.0244 10.3337 9.85487 10.3337 9.67806C10.3337 9.50125 10.2634 9.33168 10.1384 9.20666C10.0134 9.08163 9.8438 9.0114 9.66699 9.0114H4.33366Z" fill="#06BADA"/>
<path id="Vector_2" fill-rule="evenodd" clip-rule="evenodd" d="M13.6668 7.00004C13.6668 10.682 10.6822 13.6667 7.00016 13.6667C3.31816 13.6667 0.333496 10.682 0.333496 7.00004C0.333496 3.31804 3.31816 0.333374 7.00016 0.333374C10.6822 0.333374 13.6668 3.31804 13.6668 7.00004ZM12.3335 7.00004C12.3335 8.41453 11.7716 9.77108 10.7714 10.7713C9.7712 11.7715 8.41465 12.3334 7.00016 12.3334C5.58567 12.3334 4.22912 11.7715 3.22893 10.7713C2.22873 9.77108 1.66683 8.41453 1.66683 7.00004C1.66683 5.58555 2.22873 4.229 3.22893 3.2288C4.22912 2.22861 5.58567 1.66671 7.00016 1.66671C8.41465 1.66671 9.7712 2.22861 10.7714 3.2288C11.7716 4.229 12.3335 5.58555 12.3335 7.00004Z" fill="#06BADA"/>
</g>
</svg>
