<svg width="16" height="16" viewBox="0 0 16 16" fill="none" xmlns="http://www.w3.org/2000/svg">
<path fill-rule="evenodd" clip-rule="evenodd" d="M8 13.3171C5.01633 10.5895 4 8.58051 4 7.10311C4 4.72628 5.78057 3 8 3C10.2194 3 12 4.72628 12 7.10311C12 8.58051 10.9837 10.5895 8 13.3171ZM7.33468 15.4066C7.71386 15.7445 8.28614 15.7445 8.66532 15.4066L9.03073 15.0809C12.3221 12.1477 14 9.54211 14 7.10311C14 3.64043 11.3426 1 8 1C4.65737 1 2 3.64043 2 7.10311C2 9.54211 3.67789 12.1477 6.96927 15.0809L7.33468 15.4066Z" fill="#353535"/>
<path fill-rule="evenodd" clip-rule="evenodd" d="M8 5C9.10457 5 10 5.89543 10 7C10 8.10457 9.10457 9 8 9C6.89543 9 6 8.10457 6 7C6 5.89543 6.89543 5 8 5Z" fill="#353535"/>
</svg>
